<svg id="visual" viewBox="0 0 900 450" width="900" height="450" xmlns="http://www.w3.org/2000/svg" xmlns:xlink="http://www.w3.org/1999/xlink" version="1.1"><rect x="0" y="0" width="900" height="450" fill="#1e1d27"></rect><defs><linearGradient id="grad1_0" x1="50%" y1="100%" x2="100%" y2="0%"><stop offset="10%" stop-color="#3e8eff" stop-opacity="1"></stop><stop offset="90%" stop-color="#3e8eff" stop-opacity="1"></stop></linearGradient></defs><defs><linearGradient id="grad1_1" x1="50%" y1="100%" x2="100%" y2="0%"><stop offset="10%" stop-color="#3e8eff" stop-opacity="1"></stop><stop offset="90%" stop-color="#477bdc" stop-opacity="1"></stop></linearGradient></defs><defs><linearGradient id="grad1_2" x1="50%" y1="100%" x2="100%" y2="0%"><stop offset="10%" stop-color="#4869ba" stop-opacity="1"></stop><stop offset="90%" stop-color="#477bdc" stop-opacity="1"></stop></linearGradient></defs><defs><linearGradient id="grad1_3" x1="50%" y1="100%" x2="100%" y2="0%"><stop offset="10%" stop-color="#4869ba" stop-opacity="1"></stop><stop offset="90%" stop-color="#455899" stop-opacity="1"></stop></linearGradient></defs><defs><linearGradient id="grad1_4" x1="50%" y1="100%" x2="100%" y2="0%"><stop offset="10%" stop-color="#3e487a" stop-opacity="1"></stop><stop offset="90%" stop-color="#455899" stop-opacity="1"></stop></linearGradient></defs><defs><linearGradient id="grad1_5" x1="50%" y1="100%" x2="100%" y2="0%"><stop offset="10%" stop-color="#3e487a" stop-opacity="1"></stop><stop offset="90%" stop-color="#35395d" stop-opacity="1"></stop></linearGradient></defs><defs><linearGradient id="grad1_6" x1="50%" y1="100%" x2="100%" y2="0%"><stop offset="10%" stop-color="#2a2a41" stop-opacity="1"></stop><stop offset="90%" stop-color="#35395d" stop-opacity="1"></stop></linearGradient></defs><defs><linearGradient id="grad1_7" x1="50%" y1="100%" x2="100%" y2="0%"><stop offset="10%" stop-color="#2a2a41" stop-opacity="1"></stop><stop offset="90%" stop-color="#1e1d27" stop-opacity="1"></stop></linearGradient></defs><defs><linearGradient id="grad2_0" x1="0%" y1="100%" x2="50%" y2="0%"><stop offset="10%" stop-color="#3e8eff" stop-opacity="1"></stop><stop offset="90%" stop-color="#3e8eff" stop-opacity="1"></stop></linearGradient></defs><defs><linearGradient id="grad2_1" x1="0%" y1="100%" x2="50%" y2="0%"><stop offset="10%" stop-color="#477bdc" stop-opacity="1"></stop><stop offset="90%" stop-color="#3e8eff" stop-opacity="1"></stop></linearGradient></defs><defs><linearGradient id="grad2_2" x1="0%" y1="100%" x2="50%" y2="0%"><stop offset="10%" stop-color="#477bdc" stop-opacity="1"></stop><stop offset="90%" stop-color="#4869ba" stop-opacity="1"></stop></linearGradient></defs><defs><linearGradient id="grad2_3" x1="0%" y1="100%" x2="50%" y2="0%"><stop offset="10%" stop-color="#455899" stop-opacity="1"></stop><stop offset="90%" stop-color="#4869ba" stop-opacity="1"></stop></linearGradient></defs><defs><linearGradient id="grad2_4" x1="0%" y1="100%" x2="50%" y2="0%"><stop offset="10%" stop-color="#455899" stop-opacity="1"></stop><stop offset="90%" stop-color="#3e487a" stop-opacity="1"></stop></linearGradient></defs><defs><linearGradient id="grad2_5" x1="0%" y1="100%" x2="50%" y2="0%"><stop offset="10%" stop-color="#35395d" stop-opacity="1"></stop><stop offset="90%" stop-color="#3e487a" stop-opacity="1"></stop></linearGradient></defs><defs><linearGradient id="grad2_6" x1="0%" y1="100%" x2="50%" y2="0%"><stop offset="10%" stop-color="#35395d" stop-opacity="1"></stop><stop offset="90%" stop-color="#2a2a41" stop-opacity="1"></stop></linearGradient></defs><defs><linearGradient id="grad2_7" x1="0%" y1="100%" x2="50%" y2="0%"><stop offset="10%" stop-color="#1e1d27" stop-opacity="1"></stop><stop offset="90%" stop-color="#2a2a41" stop-opacity="1"></stop></linearGradient></defs><g transform="translate(900, 450)"><path d="M-315 0C-311.5 -42 -308.1 -84.1 -291 -120.5C-274 -157 -243.4 -187.9 -211.4 -211.4C-179.4 -234.9 -146.1 -251 -110.6 -267C-75.1 -283 -37.6 -299 0 -315L0 0Z" fill="#242434"></path><path d="M-275.6 0C-272.6 -36.8 -269.5 -73.6 -254.6 -105.5C-239.7 -137.4 -213 -164.4 -185 -185C-157 -205.5 -127.8 -219.6 -96.8 -233.6C-65.7 -247.6 -32.9 -261.6 0 -275.6L0 0Z" fill="#30314e"></path><path d="M-236.2 0C-233.6 -31.5 -231 -63.1 -218.3 -90.4C-205.5 -117.8 -182.6 -141 -158.6 -158.6C-134.6 -176.2 -109.5 -188.2 -82.9 -200.3C-56.3 -212.3 -28.2 -224.3 0 -236.2L0 0Z" fill="#3a406b"></path><path d="M-196.9 0C-194.7 -26.3 -192.5 -52.5 -181.9 -75.3C-171.2 -98.1 -152.1 -117.5 -132.1 -132.1C-112.2 -146.8 -91.3 -156.9 -69.1 -166.9C-47 -176.9 -23.5 -186.9 0 -196.9L0 0Z" fill="#42508a"></path><path d="M-157.5 0C-155.8 -21 -154 -42 -145.5 -60.3C-137 -78.5 -121.7 -94 -105.7 -105.7C-89.7 -117.5 -73 -125.5 -55.3 -133.5C-37.6 -141.5 -18.8 -149.5 0 -157.5L0 0Z" fill="#4761aa"></path><path d="M-118.1 0C-116.8 -15.8 -115.5 -31.5 -109.1 -45.2C-102.7 -58.9 -91.3 -70.5 -79.3 -79.3C-67.3 -88.1 -54.8 -94.1 -41.5 -100.1C-28.2 -106.1 -14.1 -112.1 0 -118.1L0 0Z" fill="#4872cb"></path><path d="M-78.7 0C-77.9 -10.5 -77 -21 -72.8 -30.1C-68.5 -39.3 -60.9 -47 -52.9 -52.9C-44.9 -58.7 -36.5 -62.7 -27.6 -66.8C-18.8 -70.8 -9.4 -74.8 0 -78.7L0 0Z" fill="#4484ed"></path><path d="M-39.4 0C-38.9 -5.3 -38.5 -10.5 -36.4 -15.1C-34.2 -19.6 -30.4 -23.5 -26.4 -26.4C-22.4 -29.4 -18.3 -31.4 -13.8 -33.4C-9.4 -35.4 -4.7 -37.4 0 -39.4L0 0Z" fill="#3e8eff"></path></g><g transform="translate(0, 0)"><path d="M315 0C311.8 42.5 308.7 85 291 120.5C273.4 156.1 241.2 184.7 210 210C178.8 235.3 148.5 257.4 113.7 274.4C78.8 291.3 39.4 303.2 0 315L0 0Z" fill="#242434"></path><path d="M275.6 0C272.9 37.2 270.1 74.4 254.6 105.5C239.2 136.6 211.1 161.6 183.8 183.8C156.4 205.9 129.9 225.3 99.4 240.1C69 254.9 34.5 265.3 0 275.6L0 0Z" fill="#30314e"></path><path d="M236.3 0C233.9 31.9 231.5 63.8 218.3 90.4C205 117.1 180.9 138.5 157.5 157.5C134.1 176.5 111.4 193.1 85.2 205.8C59.1 218.5 29.6 227.4 0 236.3L0 0Z" fill="#3a406b"></path><path d="M196.9 0C194.9 26.6 192.9 53.1 181.9 75.3C170.9 97.6 150.8 115.4 131.3 131.3C111.7 147.1 92.8 160.9 71 171.5C49.3 182.1 24.6 189.5 0 196.9L0 0Z" fill="#42508a"></path><path d="M157.5 0C155.9 21.3 154.3 42.5 145.5 60.3C136.7 78 120.6 92.3 105 105C89.4 117.7 74.3 128.7 56.8 137.2C39.4 145.7 19.7 151.6 0 157.5L0 0Z" fill="#4761aa"></path><path d="M118.1 0C116.9 15.9 115.8 31.9 109.1 45.2C102.5 58.5 90.5 69.3 78.8 78.8C67 88.3 55.7 96.5 42.6 102.9C29.6 109.3 14.8 113.7 0 118.1L0 0Z" fill="#4872cb"></path><path d="M78.8 0C78 10.6 77.2 21.3 72.8 30.1C68.3 39 60.3 46.2 52.5 52.5C44.7 58.8 37.1 64.4 28.4 68.6C19.7 72.8 9.9 75.8 0 78.8L0 0Z" fill="#4484ed"></path><path d="M39.4 0C39 5.3 38.6 10.6 36.4 15.1C34.2 19.5 30.2 23.1 26.3 26.3C22.3 29.4 18.6 32.2 14.2 34.3C9.9 36.4 4.9 37.9 0 39.4L0 0Z" fill="#3e8eff"></path></g></svg>